<?xml version="1.0" standalone="no"?>
<!DOCTYPE svg PUBLIC "-//W3C//DTD SVG 20010904//EN"
 "http://www.w3.org/TR/2001/REC-SVG-20010904/DTD/svg10.dtd">
<svg version="1.0" xmlns="http://www.w3.org/2000/svg"
 width="888.000000pt" height="888.000000pt" viewBox="0 0 888.000000 888.000000"
 preserveAspectRatio="xMidYMid meet">

<g transform="translate(0.000000,888.000000) scale(0.100000,-0.100000)"
fill="#000000" stroke="none">
<path d="M2855 8139 c-21 -22 -51 -42 -65 -45 -70 -13 -160 -47 -186 -69 -16
-14 -35 -25 -43 -25 -15 0 -9 10 33 57 33 39 9 37 -39 -2 -25 -21 -48 -35 -51
-32 -5 5 23 64 48 99 7 9 9 20 5 24 -12 13 -79 -29 -133 -83 -39 -40 -59 -53
-81 -53 -25 0 -33 -6 -47 -37 -37 -81 -61 -122 -73 -123 -11 0 -33 57 -48 124
-4 20 -9 26 -17 18 -13 -13 -40 -190 -32 -214 9 -30 -12 -20 -44 20 -17 20
-33 34 -37 30 -4 -4 -4 -34 0 -67 5 -47 14 -68 38 -97 18 -20 32 -42 32 -48 0
-7 -23 -11 -62 -11 -35 0 -63 -1 -63 -3 0 -2 11 -13 25 -24 14 -11 23 -23 20
-28 -6 -9 18 -20 45 -20 30 0 31 -15 5 -46 -44 -51 -67 -129 -59 -201 7 -70
22 -78 40 -22 20 60 39 48 64 -38 13 -43 23 -90 24 -105 1 -14 3 -25 6 -23 3
2 30 -21 60 -51 30 -30 60 -54 66 -54 6 0 17 -7 24 -15 9 -11 22 -14 41 -10
21 5 33 1 49 -15 18 -18 26 -20 45 -12 16 8 22 17 18 30 -2 11 0 29 6 41 10
18 7 22 -19 36 -17 9 -28 20 -25 25 3 5 -11 9 -32 7 -32 -2 -38 1 -41 19 -4
31 25 38 65 14 19 -11 46 -20 60 -20 22 0 24 2 13 15 -19 23 -6 29 33 16 21
-7 43 -8 58 -3 28 11 69 -4 69 -24 0 -10 9 -12 29 -8 18 4 38 0 53 -10 22 -14
26 -14 46 0 13 9 19 20 15 27 -4 7 -8 28 -8 49 -1 30 4 39 23 48 32 14 21 25
-23 22 -26 -2 -33 1 -29 11 4 10 -5 17 -28 21 -37 7 -75 32 -65 42 11 11 159
36 207 35 56 -2 110 -37 158 -104 39 -55 60 -68 91 -60 18 5 21 10 15 39 -8
41 11 47 19 7 13 -59 39 -67 57 -17 5 13 16 24 23 24 21 0 38 46 27 74 -5 13
-6 34 -2 47 6 23 6 23 13 -6 20 -88 5 -166 -45 -240 -24 -35 -37 -43 -104 -63
-88 -27 -231 -78 -279 -99 -18 -7 -63 -25 -100 -39 -37 -14 -85 -41 -106 -61
-41 -36 -109 -72 -139 -73 -10 0 -18 -6 -18 -13 0 -7 -44 -40 -97 -72 -54 -33
-119 -74 -146 -92 -37 -25 -62 -33 -117 -39 -39 -3 -70 -10 -70 -15 0 -14 41
-21 55 -9 8 6 24 10 37 8 19 -4 12 -10 -37 -32 -33 -14 -69 -31 -80 -36 -11
-5 -28 -10 -37 -12 -12 -2 -15 -7 -9 -17 7 -11 24 -9 95 14 47 15 86 30 86 34
0 8 52 32 58 26 2 -2 -4 -12 -14 -22 -17 -17 -16 -18 21 -21 22 -2 41 1 43 7
2 6 11 11 21 11 10 0 40 16 67 35 27 19 55 35 61 35 7 0 13 5 13 10 0 6 8 10
17 10 14 0 12 -4 -7 -22 -42 -39 1 -34 94 12 97 48 148 58 211 40 25 -7 89
-14 142 -15 156 -5 198 -21 159 -64 -20 -22 -21 -32 -2 -25 8 3 17 0 21 -5 9
-15 25 -4 25 18 0 10 9 26 21 37 l21 19 -24 6 c-21 6 -21 7 -4 14 20 9 38 -9
30 -30 -3 -6 2 -18 11 -25 8 -7 15 -19 15 -28 0 -13 2 -13 18 0 18 17 22 16
148 -23 17 -5 38 -9 47 -9 26 0 21 -11 -37 -72 -65 -71 -96 -77 -122 -23 -16
35 -43 51 -29 18 4 -10 10 -27 13 -38 8 -33 23 -45 52 -45 36 0 111 61 149
122 38 60 71 73 71 27 0 -9 -14 -48 -31 -86 -17 -37 -35 -79 -40 -93 l-10 -25
25 25 c14 14 42 66 62 115 44 109 44 109 93 124 22 6 70 30 106 52 37 22 74
43 83 46 16 7 52 39 52 48 0 21 -151 -40 -172 -70 -4 -5 -10 -6 -15 -1 -4 4
-1 12 8 17 36 20 139 101 139 110 0 14 -15 11 -43 -11 -14 -11 -29 -20 -33
-20 -4 0 -15 -7 -24 -15 -9 -8 -38 -26 -65 -40 -54 -29 -70 -22 -61 27 3 15 1
30 -4 33 -6 3 -10 -5 -10 -20 0 -43 -27 -97 -47 -93 -16 3 -18 13 -14 73 4 80
14 99 50 92 14 -3 41 1 60 9 18 8 44 14 57 14 12 0 26 5 30 12 5 8 -16 10 -84
5 -112 -7 -121 -1 -105 76 10 49 10 67 -2 55 -3 -3 -10 -34 -16 -69 -6 -35
-16 -69 -23 -75 -14 -14 -200 -81 -248 -89 -52 -10 -132 39 -99 59 12 8 20 56
10 56 -9 0 -78 -90 -79 -102 0 -3 9 -4 19 -1 24 6 61 -13 61 -32 0 -21 -30
-26 -93 -16 -5 0 -5 10 -2 22 l7 21 -30 -22 c-28 -21 -33 -21 -128 -10 -54 7
-101 14 -103 16 -8 7 23 36 68 62 25 15 100 45 166 68 200 69 232 81 313 123
83 44 115 49 146 26 25 -19 36 -19 36 0 0 15 13 19 63 15 15 -1 27 3 27 9 0 6
-10 11 -22 11 -22 1 -66 26 -57 33 2 3 38 14 79 26 41 11 144 56 228 98 147
75 155 78 234 82 96 4 87 21 -12 21 -99 0 -117 -7 -345 -124 -28 -15 -74 -29
-103 -33 -34 -4 -52 -10 -52 -19 0 -15 -16 -19 -24 -6 -9 15 6 51 19 46 7 -3
55 15 106 39 171 82 228 105 304 125 44 12 171 50 195 58 13 4 13 6 0 14 -11
7 -6 10 20 10 28 0 32 3 20 11 -12 8 -9 9 12 5 22 -5 44 5 115 55 48 34 97 69
108 79 11 10 42 28 70 40 34 15 45 24 36 29 -23 15 -85 -13 -192 -86 -108 -73
-142 -89 -333 -150 -100 -32 -110 -33 -138 -20 -22 10 -26 17 -17 23 7 4 14 3
17 -4 2 -7 9 -12 16 -12 22 0 66 25 62 35 -2 6 5 12 16 12 25 2 48 21 48 39 0
8 9 14 19 14 11 0 23 5 26 10 10 16 38 12 31 -5 -7 -19 -5 -19 63 2 79 24 194
105 248 175 42 56 124 125 168 143 19 8 19 9 -2 12 -33 6 -91 -29 -167 -101
-38 -36 -72 -66 -75 -66 -3 -1 -24 -17 -46 -37 -39 -35 -39 -36 -11 -29 26 6
27 5 13 -8 -11 -11 -25 -14 -46 -10 -18 4 -37 2 -45 -5 -7 -6 -38 -20 -68 -30
-30 -10 -63 -23 -74 -29 -10 -5 -38 -18 -62 -28 -27 -11 -49 -29 -58 -46 -8
-15 -19 -28 -24 -28 -14 0 -12 17 3 23 6 3 3 6 -9 6 -12 1 -79 -28 -150 -64
-84 -42 -132 -61 -138 -55 -7 7 -5 10 5 11 16 1 155 153 199 219 35 53 60 128
60 183 0 56 -21 42 -35 -24 -24 -115 -75 -186 -253 -352 -114 -106 -152 -102
-152 16 0 41 2 43 50 64 28 12 50 26 50 31 0 6 -18 13 -39 17 -22 4 -45 13
-51 21 -10 11 -5 18 26 36 21 13 54 28 73 33 51 15 49 31 -7 55 -68 30 -108
72 -103 112 1 18 -7 52 -20 80 -22 47 -22 49 -4 62 18 13 17 16 -22 52 -129
119 -194 164 -242 165 -51 1 -132 22 -132 34 0 5 28 17 63 25 44 11 58 19 49
25 -17 10 -82 11 -133 1 -34 -6 -37 -5 -40 20 -4 40 -18 38 -63 -7z m-66 -603
c14 -17 -11 -41 -34 -32 -18 7 -20 32 -2 39 20 9 24 8 36 -7z m-313 -48 c-10
-6 -16 -23 -16 -43 0 -28 -5 -36 -23 -40 -35 -9 -132 -1 -129 10 2 6 10 9 18
7 21 -4 53 16 95 61 33 34 41 38 54 27 15 -12 15 -14 1 -22z m1729 12 c-3 -5
-11 -10 -16 -10 -6 0 -7 5 -4 10 3 6 11 10 16 10 6 0 7 -4 4 -10z m-1925 -46
c0 -16 -26 -19 -35 -4 -3 6 -4 14 0 20 8 13 35 1 35 -16z m355 16 c-3 -5 -12
-10 -20 -10 -8 0 -17 5 -20 10 -4 6 5 10 20 10 15 0 24 -4 20 -10z m-15 -124
c0 -11 -19 -15 -25 -6 -3 5 1 10 9 10 9 0 16 -2 16 -4z m1180 -26 c0 -5 -7
-10 -16 -10 -8 0 -12 5 -9 10 3 6 10 10 16 10 5 0 9 -4 9 -10z m-42 -28 c2 -7
-2 -10 -12 -6 -9 3 -16 11 -16 16 0 13 23 5 28 -10z m-1161 -72 c71 0 77 -8
39 -55 l-24 -30 -47 25 c-25 14 -58 37 -72 52 l-26 28 34 -10 c19 -6 62 -10
96 -10z m713 -90 c0 -5 -7 -10 -16 -10 -8 0 -12 5 -9 10 3 6 10 10 16 10 5 0
9 -4 9 -10z m-996 -119 c-6 -6 -34 20 -34 32 0 6 8 2 19 -9 10 -10 17 -21 15
-23z m1126 9 c0 -5 -2 -10 -4 -10 -3 0 -8 5 -11 10 -3 6 -1 10 4 10 6 0 11 -4
11 -10z m30 -20 c0 -5 -4 -10 -10 -10 -5 0 -10 5 -10 10 0 6 5 10 10 10 6 0
10 -4 10 -10z m-151 -23 c-2 -2 -29 -14 -59 -26 -30 -13 -61 -25 -68 -28 -8
-3 -10 0 -6 11 3 9 14 16 23 16 10 0 21 3 25 8 9 9 79 30 85 25 2 -2 2 -4 0
-6z m124 -327 c-4 -90 -20 -105 -115 -104 -66 1 -73 3 -95 30 -30 38 -29 52 5
66 15 6 54 23 87 38 120 54 121 54 118 -30z m-913 30 c0 -5 -6 -10 -12 -10 -7
0 -24 -9 -38 -20 -14 -11 -31 -20 -39 -20 -21 0 6 29 43 45 39 17 46 18 46 5z
m370 -34 c0 -8 -63 -36 -82 -36 -10 0 -18 5 -18 10 0 6 9 10 20 10 11 0 20 5
20 10 0 6 14 10 30 10 17 0 30 -2 30 -4z m-650 -126 c0 -5 -4 -10 -10 -10 -5
0 -10 5 -10 10 0 6 5 10 10 10 6 0 10 -4 10 -10z"/>
<path d="M2635 8110 c-3 -6 1 -7 9 -4 18 7 21 14 7 14 -6 0 -13 -4 -16 -10z"/>
<path d="M3845 7075 c-66 -17 -130 -39 -196 -69 -76 -35 -47 -32 73 8 125 40
242 61 306 53 48 -6 104 -23 210 -66 65 -26 68 -19 4 13 -122 62 -172 76 -261
75 -47 -1 -108 -7 -136 -14z"/>
<path d="M2511 6923 c-12 -32 -12 -38 3 -49 9 -6 33 -15 52 -19 28 -5 40 -2
59 17 41 39 24 52 -30 24 -40 -21 -77 -3 -64 31 11 30 11 33 1 33 -4 0 -14
-17 -21 -37z"/>
<path d="M4565 6889 c45 -16 120 -29 220 -39 82 -7 179 -32 197 -49 12 -10
-133 -101 -244 -154 -160 -75 -222 -148 -279 -324 -13 -40 -27 -73 -33 -73 -8
0 -41 23 -161 114 -22 16 -44 36 -48 43 -9 14 -37 18 -37 5 0 -5 9 -17 20 -27
11 -10 20 -22 20 -27 0 -24 -37 2 -137 97 -128 121 -142 107 -19 -19 87 -90
212 -179 263 -189 17 -3 54 -20 81 -37 60 -37 68 -37 105 -2 l29 27 -6 -46
c-4 -25 -11 -124 -15 -220 -5 -96 -17 -206 -26 -245 l-16 -72 -60 -32 c-87
-46 -132 -88 -125 -115 8 -30 -8 -41 -143 -104 l-114 -54 -140 12 c-182 15
-220 35 -312 157 -65 86 -107 128 -151 149 -44 21 -133 91 -203 162 -29 29
-56 51 -59 49 -8 -9 47 -86 86 -120 19 -17 43 -38 51 -47 9 -9 38 -29 64 -44
l48 -27 -8 -47 c-9 -55 -9 -93 2 -142 7 -34 5 -37 -21 -43 -38 -10 -149 3
-209 24 -103 36 -203 59 -286 65 -100 7 -184 -8 -175 -32 3 -8 6 -24 6 -36 1
-20 3 -20 25 8 l24 30 131 -11 c73 -7 133 -14 135 -16 2 -2 5 -22 6 -45 3 -46
11 -47 34 -2 19 36 34 36 119 4 94 -35 179 -34 236 3 3 2 7 49 10 104 3 64 9
103 17 105 6 2 33 -27 60 -64 75 -106 139 -165 203 -187 63 -22 82 -34 74 -48
-3 -5 3 -12 15 -15 23 -6 28 -32 9 -51 -16 -16 -51 -15 -67 1 -10 10 -12 9
-11 -3 1 -8 2 -20 1 -26 -2 -18 -128 -75 -173 -79 -52 -4 -288 -119 -288 -140
0 -7 -35 -30 -77 -51 -43 -20 -127 -61 -187 -90 -102 -51 -146 -65 -146 -46 0
5 9 17 20 27 11 10 20 25 20 33 0 25 -40 71 -66 74 -13 2 -25 7 -25 11 -1 5
35 63 79 130 44 67 82 133 86 147 7 24 6 24 -16 -5 -13 -16 -27 -37 -33 -46
-44 -73 -179 -256 -208 -281 -25 -22 -32 -37 -38 -85 -6 -51 -4 -60 14 -76 18
-15 19 -20 6 -28 -7 -5 -24 -9 -36 -9 -23 0 -29 -12 -35 -70 -2 -19 -12 -28
-45 -40 -39 -13 -43 -13 -63 5 l-22 20 3 -35 c3 -26 -1 -37 -16 -45 -11 -6
-39 -23 -62 -38 -38 -24 -73 -28 -73 -7 0 5 26 57 58 117 68 127 86 167 80
185 -3 7 -20 -16 -37 -52 -105 -209 -120 -226 -212 -237 -59 -7 -76 -29 -65
-86 6 -35 59 -97 81 -97 6 0 22 11 34 24 13 13 45 34 72 46 45 19 51 19 71 5
25 -17 74 -20 83 -5 3 5 19 7 35 4 22 -5 42 2 81 26 39 24 59 30 81 26 24 -5
35 0 59 26 31 35 39 78 14 78 -40 0 -2 26 138 94 302 146 369 176 398 176 17
0 43 7 59 15 21 11 36 12 54 5 31 -12 33 -32 5 -71 -24 -34 -9 -40 18 -6 29
37 51 40 79 12 13 -13 24 -29 24 -36 0 -6 7 -9 15 -5 25 9 45 -4 45 -30 0 -13
-5 -24 -10 -24 -6 0 -16 -12 -23 -27 -6 -16 -21 -35 -32 -43 -24 -18 -113 -60
-126 -60 -5 0 -18 20 -29 45 l-19 44 24 46 c34 62 18 56 -31 -13 l-40 -57
-115 -35 c-190 -57 -383 -165 -576 -322 -105 -85 -105 -84 -81 -176 42 -165
233 -629 272 -661 8 -7 110 -7 306 -2 268 7 299 10 342 29 l46 21 62 -65 c35
-36 79 -77 99 -92 53 -40 54 -43 12 -84 -21 -20 -47 -54 -57 -76 -13 -26 -38
-52 -77 -78 -173 -116 -301 -327 -342 -561 -33 -189 -11 -551 47 -778 39 -151
189 -498 272 -630 123 -193 322 -405 486 -518 95 -65 140 -93 172 -108 46 -22
184 -56 261 -65 31 -3 57 -9 57 -13 0 -9 -75 -31 -106 -31 -14 0 -33 7 -41 16
-14 13 -30 15 -92 10 -128 -11 -256 -29 -266 -38 -13 -12 139 -10 171 3 30 11
83 3 68 -10 -15 -14 -146 -51 -180 -51 -18 0 -35 -4 -38 -9 -4 -5 -32 -17 -64
-26 -31 -9 -64 -20 -73 -25 -9 -5 -33 -12 -53 -16 -20 -3 -35 -8 -33 -11 4 -4
110 15 212 38 22 5 63 13 90 18 28 5 58 12 68 16 10 4 17 3 17 -4 0 -6 -8 -11
-18 -11 -10 0 -22 -4 -27 -8 -9 -8 -153 -71 -310 -135 -56 -24 -83 -47 -53
-47 23 0 114 29 253 80 72 26 171 62 220 80 94 33 236 86 270 100 11 5 40 16
65 24 235 77 373 165 468 295 144 198 192 349 193 610 0 258 -41 528 -113 739
-19 56 -28 96 -22 101 10 10 211 41 265 41 36 0 36 -1 68 -81 72 -181 240
-450 371 -591 66 -72 132 -115 213 -142 27 -9 20 -23 -15 -30 -18 -3 -66 -11
-106 -18 -40 -7 -72 -17 -71 -23 2 -5 -6 -11 -17 -13 -10 -2 -41 -11 -69 -22
-27 -10 -76 -26 -107 -35 -53 -15 -78 -35 -45 -35 19 0 110 31 121 41 6 5 19
9 29 9 19 0 77 15 232 61 39 12 75 27 80 33 6 7 37 15 70 19 68 6 189 52 241
92 51 39 99 109 133 195 38 94 65 213 57 252 -4 19 1 42 13 67 33 63 36 107
13 159 -11 26 -25 90 -32 142 -25 197 -135 522 -271 799 -84 171 -130 246
-210 343 -27 33 -50 72 -53 90 -3 18 -15 101 -27 183 -11 83 -25 172 -30 199
-5 28 -16 97 -25 155 -16 112 -32 180 -46 195 -19 22 -5 53 46 102 48 47 53
56 52 91 -2 37 -4 38 -42 41 -22 2 -51 -1 -64 -7 -24 -10 -24 -10 7 -10 45 -1
63 -10 63 -31 0 -29 -18 -33 -46 -11 -28 22 -64 28 -64 11 0 -5 9 -10 20 -10
11 0 20 -5 20 -10 0 -15 -27 -23 -55 -16 -20 5 -28 18 -45 79 -11 39 -25 87
-31 106 -9 26 -8 41 6 70 16 37 16 38 -10 77 -35 51 -85 150 -85 168 0 8 14
17 33 21 17 3 77 23 132 45 84 32 115 39 195 43 125 6 209 39 290 113 36 34
71 57 91 61 120 23 231 147 246 273 5 41 1 59 -26 114 -17 35 -37 70 -44 78
-7 7 -41 48 -76 91 -35 42 -66 75 -69 73 -6 -7 56 -96 112 -162 94 -111 97
-241 8 -352 -32 -41 -114 -92 -147 -92 -11 0 -8 12 15 55 16 30 26 57 21 59
-11 7 -31 -17 -63 -74 -58 -100 -184 -186 -298 -201 -198 -27 -242 -36 -364
-78 -43 -15 -84 -21 -151 -21 -81 0 -98 3 -154 30 -58 28 -64 35 -93 95 -30
66 -41 77 -52 50 -3 -8 -12 -15 -21 -15 -8 0 -50 -22 -93 -48 -136 -84 -313
-170 -397 -193 -236 -63 -330 -68 -465 -25 -61 20 -213 104 -265 147 -69 56
-165 149 -165 158 0 11 458 231 481 231 26 0 25 6 -21 105 -22 48 -37 92 -33
98 13 21 54 51 122 88 53 29 66 40 64 58 -2 12 4 35 11 50 10 19 18 91 26 222
6 107 17 248 25 314 19 152 20 142 -15 137 -40 -6 -40 18 -1 79 53 85 88 111
200 150 54 18 64 19 79 7 9 -8 39 -25 65 -38 27 -13 57 -34 67 -47 27 -34 33
-111 14 -179 -9 -33 -19 -72 -24 -89 -21 -78 -73 -212 -129 -333 -33 -73 -61
-136 -61 -140 0 -4 -11 -28 -25 -53 -21 -41 -23 -51 -12 -78 9 -24 8 -38 -1
-65 -7 -19 -17 -60 -22 -92 -11 -68 -16 -74 -35 -48 -13 16 -16 17 -25 4 -5
-8 -10 -27 -10 -41 0 -33 -19 -89 -31 -89 -4 0 -14 19 -20 43 -7 23 -14 44
-16 47 -9 10 -23 -27 -23 -60 0 -19 -4 -41 -9 -49 -10 -16 -24 3 -62 82 -28
57 -44 62 -34 10 18 -98 19 -94 -4 -100 -36 -9 -23 -23 23 -23 25 0 48 -4 51
-10 10 -17 39 -11 53 10 7 12 23 20 38 20 15 0 43 15 67 35 22 19 47 35 55 35
10 0 12 7 8 25 l-6 24 213 0 c121 0 224 5 238 10 17 8 -44 10 -208 9 -128 -1
-236 1 -239 5 -4 4 19 18 52 32 32 14 81 38 108 52 27 14 67 26 90 27 33 1 43
6 55 28 14 24 13 32 -9 100 -25 72 -59 118 -88 118 -8 0 -43 -27 -78 -60 -35
-34 -71 -60 -83 -60 -12 0 -21 3 -21 8 0 15 38 109 83 202 119 252 180 451
176 580 -2 98 -2 98 22 105 11 4 29 21 40 38 70 117 -67 235 -291 252 -41 3
-95 7 -120 10 -25 3 -65 8 -90 10 -42 4 -43 3 -15 -6z m432 -155 c-3 -3 -12
-4 -19 -1 -8 3 -5 6 6 6 11 1 17 -2 13 -5z m54 -40 c-1 -47 -4 -54 -17 -43
-12 9 -13 26 -5 79 2 13 22 -20 22 -36z m-91 6 c0 -5 -2 -10 -4 -10 -3 0 -8 5
-11 10 -3 6 -1 10 4 10 6 0 11 -4 11 -10z m-25 -10 c3 -5 -1 -10 -9 -10 -9 0
-16 5 -16 10 0 6 4 10 9 10 6 0 13 -4 16 -10z m79 -85 c-7 -16 -24 -21 -24 -6
0 8 7 13 27 20 1 1 0 -6 -3 -14z m-476 -302 c1 -31 -3 -40 -23 -50 -30 -13
-31 -6 -13 61 14 54 34 47 36 -11z m-210 -904 c11 -18 11 -24 -4 -40 -9 -10
-22 -19 -29 -19 -6 0 -40 -15 -75 -33 -36 -18 -87 -43 -115 -55 -27 -12 -57
-26 -65 -31 -8 -4 -60 -29 -115 -55 -55 -26 -113 -54 -130 -63 -16 -9 -65 -34
-107 -56 -43 -23 -80 -38 -83 -35 -3 3 -8 22 -12 42 -6 36 -5 36 58 66 35 16
76 30 91 30 15 0 31 6 35 13 4 6 22 18 38 26 17 7 37 17 45 22 52 30 236 119
246 119 7 0 19 6 26 13 19 20 140 76 163 76 11 1 26 -8 33 -20z m-358 -77 c0
-4 -20 -18 -45 -30 -38 -18 -49 -20 -65 -10 -11 7 -20 21 -20 30 0 15 10 18
65 18 36 0 65 -4 65 -8z m-130 -328 c0 -10 -54 -23 -180 -41 -46 -7 -33 6 50
49 90 46 103 48 117 24 7 -12 12 -26 13 -32z m-450 11 c-7 -8 -16 -15 -21 -15
-5 0 -9 7 -9 15 0 9 9 15 21 15 18 0 19 -2 9 -15z m-109 -102 c12 -33 8 -45
-22 -60 -13 -7 -62 -30 -109 -53 -47 -23 -96 -48 -110 -55 -36 -21 -55 -18
-68 9 -8 18 -8 27 1 34 28 22 276 152 290 152 4 0 12 -12 18 -27z m-403 -19
c-4 -20 -119 -67 -132 -54 -25 25 41 68 107 69 21 1 28 -3 25 -15z m2474 -50
c4 -3 8 -11 8 -18 0 -14 -82 -32 -98 -23 -4 3 -41 2 -82 -3 -74 -8 -128 1 -85
15 11 3 34 13 50 20 46 22 177 27 207 9z m242 -3 c13 -21 -100 -77 -135 -66
-26 9 -24 25 4 26 12 0 38 11 57 24 36 25 65 31 74 16z m-1666 -30 c3 -8 -1
-12 -9 -9 -7 2 -15 10 -17 17 -3 8 1 12 9 9 7 -2 15 -10 17 -17z m78 -2 c3 -6
2 -15 -4 -21 -12 -12 -55 8 -47 23 8 12 42 12 51 -2z m-1148 -11 c-7 -19 -38
-22 -38 -4 0 10 9 16 21 16 12 0 19 -5 17 -12z m-58 -33 c0 -9 -9 -15 -24 -15
-13 0 -29 7 -36 15 -11 13 -7 15 24 15 25 0 36 -4 36 -15z m2216 -20 c10 -8
36 -15 57 -15 21 0 47 -4 57 -10 12 -6 35 -6 67 1 26 5 75 15 108 20 33 5 66
10 74 12 8 1 16 -3 18 -10 7 -19 -75 -56 -108 -49 -19 3 -31 1 -36 -9 -12 -21
-267 -24 -398 -6 -110 16 -144 31 -74 32 221 4 204 2 202 27 -3 26 6 28 33 7z
m735 -65 c34 -25 37 -45 10 -60 -28 -15 -40 -12 -40 8 0 9 -2 40 -5 67 -3 28
-3 40 0 28 3 -13 19 -32 35 -43z m-2001 10 c0 -11 -7 -20 -15 -20 -8 0 -15 2
-15 4 0 2 -3 11 -6 20 -4 12 0 16 15 16 14 0 21 -6 21 -20z m971 -27 c15 -11
30 -14 219 -32 63 -7 129 -18 145 -25 17 -7 49 -22 72 -32 23 -11 48 -29 54
-41 10 -19 21 -23 63 -23 46 0 53 -3 68 -30 16 -28 16 -30 -1 -39 -16 -9 -17
-7 -13 15 4 21 1 25 -14 22 -20 -4 -21 -10 -8 -42 7 -18 3 -18 -68 -12 l-76 8
-4 -47 c-2 -27 1 -48 7 -50 5 -1 32 -8 60 -14 27 -7 63 -23 80 -35 17 -13 44
-26 62 -30 55 -13 72 -64 17 -53 -33 6 -53 -19 -32 -40 18 -17 38 -10 38 13 0
22 13 16 37 -18 16 -23 19 -36 13 -49 -7 -13 -4 -21 13 -32 18 -13 19 -18 8
-26 -8 -5 -19 -7 -25 -5 -17 6 -40 -12 -32 -25 4 -6 14 -11 22 -11 26 0 15
-20 -29 -51 -36 -25 -43 -35 -39 -55 2 -13 11 -24 20 -24 12 0 13 -3 4 -12
-18 -18 -140 -28 -193 -16 -41 10 -49 16 -67 54 -12 24 -46 77 -76 117 -30 41
-68 95 -84 120 -29 46 -75 103 -162 202 -83 95 -98 112 -115 139 -10 14 -14
26 -10 26 13 0 90 -58 105 -79 8 -12 20 -21 27 -21 18 0 121 -48 128 -60 10
-16 23 -12 35 10 14 27 -5 64 -28 55 -19 -7 -148 59 -217 112 -55 42 -90 65
-150 97 -38 21 -74 42 -80 48 -14 14 208 6 226 -9z m-763 -36 c2 -15 -1 -27
-6 -27 -17 0 -34 29 -28 46 9 23 31 11 34 -19z m-144 -52 c21 -33 21 -35 -13
-35 -32 0 -56 22 -47 45 8 23 42 18 60 -10z m-1057 -27 c53 -49 12 -78 -53
-37 -37 23 -40 29 -22 47 18 18 49 14 75 -10z m597 12 c34 -12 33 -28 -1 -36
-16 -4 -38 -17 -51 -30 -24 -26 -62 -32 -62 -11 0 6 -3 22 -6 34 -5 19 0 26
27 38 41 17 59 18 93 5z m1256 -42 c11 -12 20 -25 20 -29 0 -4 -22 -15 -49
-24 -75 -24 -98 -62 -86 -136 8 -46 50 -99 107 -135 20 -13 44 -36 51 -51 21
-41 29 -127 17 -173 -14 -53 -4 -86 31 -100 21 -9 36 -9 61 -1 39 14 45 8 63
-59 22 -83 46 -86 -245 30 -85 34 -202 80 -260 102 -58 22 -115 43 -127 48
-26 11 -32 54 -10 67 7 4 56 71 108 148 59 88 129 175 189 237 52 54 98 98
102 98 4 0 16 -10 28 -22z m-1422 -10 c7 -7 12 -29 12 -50 0 -33 -5 -41 -41
-65 -26 -17 -42 -36 -46 -54 -6 -33 -30 -56 -43 -43 -16 16 -41 147 -31 157
13 13 113 66 127 66 5 1 15 -4 22 -11z m-543 -18 c14 -15 15 -20 4 -20 -30 0
-59 13 -59 26 0 21 34 17 55 -6z m898 -17 c31 -8 12 -28 -31 -31 -32 -2 -43 1
-51 16 -17 33 5 37 82 15z m-148 -22 c0 -15 -50 -49 -72 -50 -22 -2 -14 27 14
49 29 23 58 23 58 1z m441 -2 c3 -6 2 -15 -3 -20 -12 -12 -53 1 -53 17 0 17
46 19 56 3z m1598 -20 c-3 -5 -10 -7 -15 -3 -5 3 -7 10 -3 15 3 5 10 7 15 3 5
-3 7 -10 3 -15z m-2430 -24 c3 -13 9 -51 12 -84 l7 -59 -61 -31 c-70 -36 -72
-35 -97 57 -20 71 -21 70 52 113 60 35 79 36 87 4z m206 -48 c0 -14 -40 -37
-62 -37 -6 0 -1 11 12 25 26 27 50 33 50 12z m204 -3 c15 -38 6 -61 -26 -74
-18 -8 -41 -20 -50 -28 -23 -20 -44 -10 -51 24 -7 40 -1 50 44 64 22 8 42 17
45 22 9 14 31 9 38 -8z m131 -4 c-3 -5 -12 -7 -20 -3 -21 7 -19 13 6 13 11 0
18 -4 14 -10z m300 -15 c0 -28 -41 -33 -48 -6 -6 25 1 33 28 29 12 -2 20 -10
20 -23z m-115 -10 c0 -8 -4 -15 -9 -15 -13 0 -22 16 -14 24 11 11 23 6 23 -9z
m-919 -42 c5 -15 12 -45 16 -68 5 -37 2 -44 -22 -63 -40 -32 -51 -28 -69 25
-23 66 -20 88 12 112 36 27 51 26 63 -6z m2996 15 c6 -7 11 -28 11 -47 l1 -33
-25 33 c-26 35 -28 42 -17 52 10 10 19 8 30 -5z m-2577 -20 c-1 -40 -18 -101
-31 -109 -17 -10 -37 7 -54 45 l-13 31 -1 -28 c-1 -31 -28 -48 -42 -26 -5 8
-8 25 -7 39 2 19 9 25 26 25 13 0 26 5 30 11 11 17 45 33 70 34 16 0 22 -6 22
-22z m2530 8 c0 -2 -7 -7 -16 -10 -8 -3 -12 -2 -9 4 6 10 25 14 25 6z m-1551
-73 l-1 -48 -8 40 c-7 37 -5 55 6 55 2 0 3 -21 3 -47z m-1501 -29 c15 -55 6
-70 -44 -80 -68 -13 -83 32 -31 89 44 49 60 47 75 -9z m327 -3 c-6 -6 -35 -13
-65 -17 -62 -7 -61 3 5 35 35 17 42 18 55 5 9 -9 11 -17 5 -23z m588 9 c4 -16
0 -20 -19 -20 -26 0 -31 13 -11 34 15 17 23 13 30 -14z m117 21 c0 -5 3 -16 6
-25 4 -10 1 -16 -9 -16 -8 0 -17 11 -19 25 -4 17 -1 25 8 25 8 0 14 -4 14 -9z
m120 -5 c18 -23 8 -61 -17 -64 -21 -3 -23 1 -23 37 0 43 17 54 40 27z m1900
-6 c13 -24 23 -25 45 -4 19 19 25 15 54 -41 33 -62 28 -78 -31 -117 -69 -45
-121 -60 -144 -43 -10 7 -15 19 -11 29 10 25 -10 69 -28 62 -22 -8 -18 12 5
24 11 6 20 21 20 34 0 28 38 75 62 75 10 1 22 -8 28 -19z m150 -1 c0 -5 -4 -9
-10 -9 -5 0 -10 7 -10 16 0 8 5 12 10 9 6 -3 10 -10 10 -16z m-2455 -25 c23
-23 8 -32 -55 -34 -77 -2 -80 -2 -80 14 0 32 107 47 135 20z m616 -11 c8 -48
6 -53 -22 -53 -29 0 -35 12 -23 44 6 16 43 23 45 9z m129 -17 c0 -3 -4 -8 -10
-11 -5 -3 -10 -1 -10 4 0 6 5 11 10 11 6 0 10 -2 10 -4z m-1152 -32 c2 -16 -7
-27 -38 -43 -53 -28 -68 -27 -81 6 -14 37 -6 51 33 56 62 8 83 3 86 -19z m222
12 c0 -14 -29 -31 -38 -22 -2 3 -2 12 1 21 8 19 37 20 37 1z m-401 -53 c16
-58 14 -68 -24 -89 -42 -22 -52 -15 -66 47 -9 39 -8 46 12 61 11 10 32 18 45
18 18 0 25 -8 33 -37z m905 11 c20 -19 21 -54 2 -54 -24 0 -60 36 -53 53 8 21
31 22 51 1z m122 -30 c14 -54 -38 -63 -56 -9 -6 19 -9 39 -5 44 10 16 55 -10
61 -35z m-732 28 c3 -5 8 -28 12 -50 6 -38 5 -42 -14 -42 -16 0 -24 10 -32 40
-6 22 -8 45 -5 50 8 12 32 13 39 2z m328 -27 c9 -37 7 -40 -55 -70 -56 -27
-64 -24 -73 21 -5 28 -2 31 48 57 29 14 57 25 62 23 6 -1 13 -15 18 -31z
m-834 13 c-6 -18 -28 -21 -28 -4 0 9 7 16 16 16 9 0 14 -5 12 -12z m969 0 c18
-7 33 -16 33 -20 0 -13 -85 -9 -98 4 -29 29 5 38 65 16z m-880 -48 c7 -14 13
-40 13 -57 0 -26 -6 -36 -32 -49 -30 -15 -32 -15 -45 2 -7 9 -16 33 -19 51 -5
27 -2 39 17 59 28 30 49 28 66 -6z m337 -15 c10 -24 15 -49 12 -54 -8 -12 -83
-51 -100 -51 -7 0 -19 20 -26 45 -14 52 -6 69 45 91 46 20 51 18 69 -31z
m2850 9 c3 -9 6 -28 6 -42 l-1 -27 -14 25 c-16 28 -19 60 -6 60 5 0 12 -7 15
-16z m-40 -51 c4 -27 19 -121 33 -211 14 -89 23 -165 20 -168 -3 -4 -27 15
-53 40 -26 26 -49 45 -51 42 -2 -2 18 -32 45 -66 33 -40 67 -102 101 -181 52
-121 66 -171 96 -334 53 -285 63 -322 117 -428 22 -43 37 -85 34 -92 -2 -7
-20 -16 -38 -20 -47 -10 -125 -51 -165 -86 -19 -16 -38 -27 -44 -24 -15 10
-49 82 -49 104 0 21 -7 41 -45 126 -12 28 -26 61 -30 75 -4 13 -23 47 -41 75
-45 69 -83 138 -161 295 -48 97 -69 129 -71 112 -2 -12 3 -34 11 -50 157 -305
143 -280 195 -353 32 -47 40 -69 23 -69 -6 0 -87 73 -180 163 l-170 162 -1 98
c0 54 5 118 11 143 9 36 15 44 35 44 l23 0 -20 35 c-11 19 -46 56 -77 82 -107
89 -154 145 -194 229 -21 45 -38 88 -38 95 0 11 22 14 97 14 100 1 139 10 280
67 28 11 58 18 66 15 8 -3 19 -25 25 -49 11 -44 95 -149 108 -136 3 3 -11 29
-31 57 -31 43 -65 123 -65 153 0 10 158 86 181 87 12 1 18 -11 23 -46z m-2586
12 c16 -35 15 -55 -3 -55 -19 0 -40 43 -32 64 9 23 22 20 35 -9z m349 15 c24
0 58 -52 50 -74 -6 -15 -72 -19 -97 -6 -20 11 -36 63 -25 81 4 6 17 8 29 5 11
-3 31 -6 43 -6z m1191 -14 c3 -12 -1 -17 -10 -14 -7 3 -15 13 -16 22 -3 12 1
17 10 14 7 -3 15 -13 16 -22z m-1038 -27 c15 -26 6 -49 -18 -49 -22 0 -36 15
-46 48 -7 19 -4 22 23 22 20 0 34 -7 41 -21z m-884 -34 c7 -22 14 -44 14 -50
0 -10 -60 -55 -73 -55 -12 0 -47 84 -42 100 6 19 55 51 73 47 8 -1 20 -20 28
-42z m602 8 c3 -29 -2 -35 -45 -62 -54 -34 -69 -29 -75 23 -3 26 3 33 37 53
54 31 79 27 83 -14z m-309 -14 c9 -30 9 -45 2 -52 -16 -16 -41 12 -48 56 -5
32 -3 37 14 37 15 0 23 -11 32 -41z m1069 7 c48 -19 132 -50 187 -71 55 -20
114 -43 130 -49 94 -40 137 -61 147 -73 6 -7 20 -13 32 -13 17 0 18 -2 6 -11
-12 -8 -12 -9 5 -7 31 4 118 -23 133 -40 25 -32 2 -96 -29 -77 -8 6 -8 10 1
15 21 13 4 37 -32 44 -19 3 -43 14 -54 24 -39 35 -80 60 -114 67 -19 4 -52 16
-72 26 -21 11 -56 19 -78 19 -23 0 -65 11 -93 24 -59 27 -180 66 -203 66 -17
0 -32 13 -57 52 -31 49 -25 49 91 4z m790 2 c9 -12 33 -37 53 -55 20 -19 45
-55 55 -81 9 -26 30 -69 46 -95 15 -26 28 -50 28 -53 0 -3 9 -19 21 -36 12
-16 19 -31 17 -33 -8 -8 -230 80 -252 100 -31 28 -86 253 -65 266 27 17 78 10
97 -13z m-1180 -7 c3 -8 -1 -12 -9 -9 -7 2 -15 10 -17 17 -3 8 1 12 9 9 7 -2
15 -10 17 -17z m989 -38 c7 -21 13 -50 13 -64 0 -32 32 -74 56 -74 17 0 22
-11 37 -80 l7 -30 -16 30 c-25 46 -43 63 -75 70 -19 4 -31 14 -34 28 -2 12
-10 51 -18 87 -21 99 -1 121 30 33z m583 29 c0 -9 -44 -32 -60 -32 -6 0 -10 9
-10 20 0 16 7 20 35 20 19 0 35 -4 35 -8z m-2334 -42 c15 -43 7 -59 -44 -88
-44 -25 -51 -21 -71 37 -13 39 -14 37 37 67 49 29 65 26 78 -16z m999 29 c4
-6 5 -13 1 -16 -8 -9 -76 7 -76 17 0 14 67 13 75 -1z m-1350 -17 c6 -4 16 -25
23 -47 10 -36 9 -41 -10 -62 -12 -13 -25 -23 -30 -23 -10 0 -48 74 -48 93 0 8
10 22 23 30 26 19 29 19 42 9z m569 -18 c3 -9 6 -23 6 -31 0 -13 -3 -13 -15
-3 -16 13 -21 50 -6 50 5 0 12 -7 15 -16z m343 -8 c1 -1 -22 -17 -52 -35 -53
-32 -57 -33 -100 -21 -25 7 -45 16 -45 20 0 4 21 17 48 28 34 14 60 18 97 14
28 -2 51 -6 52 -6z m142 -10 c17 -20 4 -42 -38 -60 -43 -20 -116 -18 -116 2 0
18 85 71 116 71 15 1 32 -5 38 -13z m427 -1 c9 -8 11 -15 6 -15 -5 0 -15 7
-22 15 -7 8 -9 15 -6 15 4 0 14 -7 22 -15z m-960 -22 c7 -10 14 -27 14 -38 0
-17 -2 -17 -14 -5 -16 17 -31 60 -20 60 4 0 13 -8 20 -17z m-47 -24 c15 -43
14 -59 -4 -59 -16 0 -35 38 -35 71 0 30 27 22 39 -12z m-270 -21 c6 -17 11
-37 11 -44 0 -16 -70 -65 -82 -58 -15 9 -39 77 -33 94 6 19 64 50 82 43 6 -3
16 -18 22 -35z m981 18 c0 -8 -13 -24 -30 -36 -25 -18 -30 -19 -30 -6 0 9 -1
19 -1 24 -2 7 39 32 54 32 4 0 7 -6 7 -14z m373 7 c-7 -2 -19 -2 -25 0 -7 3
-2 5 12 5 14 0 19 -2 13 -5z m-75 -32 c26 -10 72 -28 102 -39 82 -30 199 -74
346 -131 73 -28 136 -51 141 -51 26 0 45 -49 83 -210 22 -96 49 -206 60 -245
31 -116 70 -292 70 -315 0 -12 -4 -20 -8 -18 -5 2 -60 62 -123 134 -63 72
-184 211 -269 309 -85 98 -160 183 -165 189 -6 6 -55 63 -110 126 -55 63 -125
143 -157 178 -32 34 -58 69 -58 77 0 20 32 19 88 -4z m-1078 -42 c15 -34 4
-46 -58 -69 -31 -11 -37 -10 -49 6 -22 30 -15 53 28 84 46 33 58 30 79 -21z
m295 21 c3 -5 -5 -16 -19 -25 -19 -13 -29 -14 -45 -5 -36 19 -26 40 18 40 22
0 42 -4 46 -10z m642 -16 c1 -5 -2 -16 -7 -24 -9 -13 -11 -13 -19 -1 -5 8 -7
20 -4 28 6 15 25 13 30 -3z m-767 -9 c0 -8 -7 -15 -15 -15 -16 0 -20 12 -8 23
11 12 23 8 23 -8z m303 5 c29 0 19 -17 -20 -32 -38 -15 -109 -13 -118 3 -10
15 49 39 85 34 19 -3 43 -5 53 -5z m-803 -48 c14 -41 14 -44 -4 -58 -30 -21
-41 -17 -59 21 -21 45 -21 55 1 71 28 22 46 12 62 -34z m956 17 c13 -22 -49
-45 -91 -35 -14 4 -25 10 -25 15 0 24 102 42 116 20z m-515 -28 c20 -16 21
-21 10 -35 -7 -8 -27 -19 -45 -24 -35 -9 -116 -4 -116 8 0 7 108 69 121 70 4
0 17 -8 30 -19z m881 -1 c10 0 34 -23 94 -91 12 -13 24 -34 28 -47 4 -12 22
-30 39 -38 45 -24 57 -38 50 -63 -7 -26 23 -58 49 -53 15 3 80 -71 114 -130 6
-11 15 -19 20 -18 5 1 10 -4 13 -11 2 -8 -2 -10 -15 -4 -11 4 -29 10 -41 12
-14 3 -23 13 -23 24 0 11 -7 19 -16 19 -11 0 -14 -5 -10 -16 4 -11 -2 -10 -24
6 -30 22 -37 36 -21 42 5 2 11 12 13 23 4 25 -24 31 -46 10 -12 -12 -20 -14
-36 -5 -21 11 -21 12 -25 50 -3 34 -127 219 -156 234 -17 8 -24 20 -25 46 -1
19 1 29 3 23 3 -7 9 -13 15 -13z m-1142 -9 c18 -34 11 -50 -31 -78 -40 -26
-42 -27 -55 -8 -22 29 -17 48 18 77 39 33 54 35 68 9z m933 -18 c7 -40 3 -53
-17 -53 -14 0 -27 55 -19 78 10 25 31 11 36 -25z m-534 -19 c26 -33 26 -40 3
-46 -41 -11 -81 23 -68 57 9 23 42 18 65 -11z m81 0 c0 -9 -7 -14 -17 -12 -25
5 -28 28 -4 28 12 0 21 -6 21 -16z m372 -26 c3 -24 1 -47 -3 -52 -5 -6 -9 -33
-9 -62 0 -47 -3 -54 -35 -79 -22 -16 -38 -39 -42 -57 -3 -16 -11 -32 -18 -34
-10 -4 -185 164 -193 186 -4 12 246 139 274 139 18 1 23 -6 26 -41z m-255 7
c4 -13 -77 -54 -94 -48 -20 7 -15 30 10 48 24 17 78 17 84 0z m1473 -1 c25 -9
52 -21 60 -28 8 -7 49 -23 90 -35 107 -32 120 -40 120 -72 0 -33 -32 -46 -77
-33 l-28 8 25 4 c24 4 40 18 40 35 0 4 -15 7 -33 7 -19 0 -47 7 -64 15 -16 8
-51 18 -77 21 -40 6 -46 5 -40 -10 6 -17 -4 -21 -21 -8 -19 13 -60 112 -47
112 4 0 27 -7 52 -16z m-2192 -44 c15 -24 7 -44 -25 -65 -29 -19 -38 -13 -48
32 -5 25 -2 34 16 46 25 18 40 14 57 -13z m256 0 c13 -13 -36 -30 -85 -30 -42
0 -54 20 -21 40 19 11 91 5 106 -10z m149 -6 c42 -7 50 -30 14 -43 -29 -11
-139 0 -144 15 -8 25 58 39 130 28z m757 -24 c0 -11 -6 -20 -13 -20 -19 0 -27
10 -20 26 8 21 33 17 33 -6z m908 -27 c2 -58 19 -110 37 -117 18 -7 54 -89 61
-140 3 -23 10 -54 16 -69 8 -20 8 -31 -1 -40 -6 -6 -11 -29 -10 -51 0 -35 2
-38 9 -18 12 28 30 29 30 1 0 -11 -4 -18 -9 -15 -12 8 -21 -18 -21 -56 0 -16
14 -88 31 -160 29 -120 32 -155 10 -132 -10 9 -50 123 -57 159 -13 67 -17 84
-30 126 -8 25 -18 74 -24 110 -9 62 -38 188 -65 279 -7 25 -16 66 -19 92 -5
41 -3 49 16 63 13 8 23 15 23 15 0 0 2 -21 3 -47z m-1001 30 c-10 -3 -16 -11
-13 -18 6 -16 -24 -45 -46 -45 -9 0 -18 11 -20 25 -6 31 13 45 62 44 19 -1 27
-3 17 -6z m-512 -23 c0 -23 -49 -20 -53 3 -3 15 2 18 25 15 17 -2 28 -9 28
-18z m-426 -16 c1 -1 1 -7 -2 -12 -8 -12 -107 -15 -107 -3 0 21 87 34 109 15z
m1971 6 c0 -5 -4 -10 -10 -10 -5 0 -10 5 -10 10 0 6 5 10 10 10 6 0 10 -4 10
-10z m-835 -66 c14 -15 25 -33 25 -40 0 -8 5 -14 10 -14 6 0 10 -9 10 -20 0
-12 11 -32 25 -45 20 -18 24 -29 19 -49 -3 -15 -2 -32 3 -39 6 -6 19 -43 31
-82 32 -113 34 -127 20 -136 -10 -7 -10 -11 0 -21 14 -14 16 -48 2 -48 -5 0
-10 3 -11 8 -4 34 -9 56 -26 117 -11 39 -26 96 -32 127 -13 63 -60 140 -103
171 -25 19 -71 24 -153 18 -38 -3 -128 -36 -132 -48 -7 -17 -33 -17 -33 0 0 7
19 31 43 54 29 28 54 42 82 47 22 3 58 10 80 15 78 17 114 13 140 -15z m994
-4 c30 -11 59 -24 64 -29 5 -5 4 -32 -4 -67 -14 -64 -18 -349 -6 -429 l7 -50
-15 40 c-15 42 -135 525 -135 544 0 16 29 13 89 -9z m-749 -21 c0 -14 -17 -10
-23 5 -4 10 -1 13 9 9 7 -3 14 -9 14 -14z m-265 -100 c30 -29 7 -46 -43 -31
-22 7 -55 12 -75 12 -34 0 -56 14 -43 28 10 10 89 20 116 15 14 -2 34 -13 45
-24z m1112 -71 c-2 -13 -4 -3 -4 22 0 25 2 35 4 23 2 -13 2 -33 0 -45z m-1230
18 c94 -17 145 -49 141 -91 -3 -34 3 -33 -154 -20 -91 8 -92 8 -150 58 -33 27
-60 53 -62 58 -5 13 142 10 225 -5z m1220 -108 c-3 -7 -5 -2 -5 12 0 14 2 19
5 13 2 -7 2 -19 0 -25z m-824 -4 c97 -50 192 -122 282 -216 83 -86 159 -178
125 -152 -8 6 -55 43 -103 82 -58 46 -135 93 -223 137 -74 37 -137 71 -139 75
-3 5 -8 29 -11 54 -8 55 -3 56 69 20z m277 -83 c0 -9 -14 -2 -37 20 -21 18
-39 34 -40 34 -1 0 -5 14 -8 30 -7 28 -5 27 38 -20 26 -27 46 -57 47 -64z
m-1012 37 c-6 -18 -55 -44 -65 -35 -9 9 35 46 55 47 8 0 12 -6 10 -12z m1919
-196 c77 -76 160 -153 186 -170 25 -18 49 -42 52 -55 4 -12 18 -45 31 -74 24
-53 30 -82 17 -84 -5 -1 -39 -3 -78 -4 -38 -1 -106 -5 -151 -9 -62 -6 -83 -4
-91 6 -20 23 -61 160 -73 238 -6 41 -19 120 -29 175 -16 89 -18 115 -6 115 1
0 66 -62 142 -138z m-845 103 c6 -14 15 -25 20 -25 5 0 6 -5 3 -10 -6 -9 -55
39 -55 54 0 16 22 3 32 -19z m556 -31 l3 -39 -16 29 c-18 34 -20 59 -2 54 6
-3 13 -22 15 -44z m-184 0 c3 -9 6 -23 6 -32 0 -13 -3 -12 -15 4 -16 21 -19
44 -6 44 5 0 12 -7 15 -16z m-1097 -16 c18 -7 33 -18 33 -25 0 -7 -21 -24 -47
-38 -27 -14 -60 -35 -75 -46 -36 -29 -48 -17 -48 46 0 41 4 56 18 64 23 14 79
14 119 -1z m2166 -114 c49 -99 55 -117 45 -134 -22 -35 -37 -31 -58 13 -21 47
-60 186 -60 217 0 38 15 18 73 -96z m-1960 76 c7 -25 -11 -25 -43 0 l-25 20
31 0 c23 0 33 -5 37 -20z m-424 -182 c16 -234 50 -530 78 -676 9 -45 12 -86 8
-90 -3 -4 -21 -7 -38 -8 -18 0 -61 -1 -97 -3 -53 -3 -60 -5 -35 -11 17 -4 46
-8 65 -9 19 -1 52 -6 74 -12 l38 -11 -6 -44 c-9 -65 -20 -80 -73 -94 -26 -7
-52 -16 -58 -20 -5 -4 -23 -10 -40 -13 -16 -3 -55 -12 -85 -21 -66 -19 -69
-17 -99 83 -59 193 -64 227 -68 456 -4 207 -3 225 20 311 40 154 117 268 215
319 90 46 87 51 101 -157z m526 120 c7 -4 13 -29 13 -55 1 -27 6 -88 12 -138
5 -49 10 -103 9 -120 -1 -16 4 -48 9 -70 6 -22 7 -55 3 -75 -7 -34 -8 -33 -15
25 -4 33 -12 78 -17 100 -4 22 -10 67 -13 100 -2 33 -11 95 -20 138 -9 43 -16
93 -16 110 1 29 2 30 12 12 6 -11 17 -23 23 -27z m540 12 c3 -5 1 -10 -4 -10
-6 0 -11 5 -11 10 0 6 2 10 4 10 3 0 8 -4 11 -10z m-1430 -48 c-10 -10 -16
-12 -13 -7 3 6 8 19 13 30 5 14 9 16 12 7 3 -8 -3 -21 -12 -30z m415 -67 c6
-49 14 -103 17 -120 6 -37 13 -278 7 -250 -19 92 -25 133 -29 206 -2 46 -7
125 -11 174 -4 50 -4 88 -1 85 2 -3 10 -45 17 -95z m619 0 c59 -53 95 -90 136
-144 22 -28 52 -66 66 -84 32 -39 69 -103 69 -120 0 -7 -10 -18 -22 -26 -24
-15 -35 -5 -85 79 -32 56 -119 159 -189 225 -50 48 -59 68 -55 123 1 14 9 9
80 -53z m479 10 c13 -29 5 -33 -14 -7 -15 20 -18 32 -6 32 5 0 14 -11 20 -25z
m-864 -6 c18 -16 -5 -24 -87 -30 -85 -6 -108 0 -83 20 32 27 145 34 170 10z
m2195 -131 c12 -28 18 -55 14 -59 -15 -14 -53 11 -66 43 -12 29 -12 35 1 51 8
9 18 17 22 17 4 0 17 -23 29 -52z m-1848 20 c111 -118 238 -284 239 -312 0
-10 -31 -55 -68 -100 -37 -44 -80 -98 -96 -119 -16 -21 -32 -35 -37 -30 -4 4
-15 60 -24 123 -20 151 -55 432 -55 448 0 19 17 14 41 -10z m653 -49 c9 -22
14 -45 10 -50 -9 -16 -34 11 -34 37 0 13 -7 27 -16 32 -9 5 -14 14 -10 20 12
19 34 2 50 -39z m115 14 c14 -59 21 -120 12 -105 -7 11 -9 11 -14 -2 -4 -9
-12 -16 -19 -16 -10 0 -13 20 -12 73 1 87 2 87 14 87 5 0 13 -17 19 -37z
m-962 11 c-3 -3 -12 -4 -19 -1 -8 3 -5 6 6 6 11 1 17 -2 13 -5z m52 -58 c6 -7
14 -50 18 -95 l6 -82 -31 -29 c-18 -16 -32 -38 -32 -49 0 -22 -27 -41 -49 -33
-9 3 -11 -1 -7 -15 4 -13 -3 -33 -22 -59 -16 -21 -36 -52 -46 -69 -20 -32 -18
-30 66 63 25 27 35 20 66 -41 22 -44 52 -79 52 -60 0 6 -18 38 -40 72 -22 34
-40 68 -40 76 0 20 38 57 50 50 6 -4 10 4 10 17 0 13 5 30 10 38 9 13 11 13
20 0 14 -21 12 -88 -2 -92 -9 -3 -4 -26 15 -79 36 -98 36 -154 0 -118 -7 7
-10 0 -9 -26 1 -35 -1 -36 -59 -60 -46 -19 -77 -24 -140 -24 -83 0 -135 13
-135 33 1 22 19 154 34 246 9 52 15 113 15 135 l-2 40 -7 -40 c-5 -22 -15 -85
-24 -140 -19 -119 -25 -149 -31 -143 -15 15 -61 427 -51 454 4 10 23 14 60 14
57 0 66 -8 66 -68 0 -15 5 -22 13 -19 7 2 12 22 12 48 l0 44 75 7 c41 5 79 10
85 12 21 9 43 6 54 -8z m821 -36 c0 -5 -7 -10 -16 -10 -8 0 -12 5 -9 10 3 6
10 10 16 10 5 0 9 -4 9 -10z m-1864 -143 c1 -115 9 -149 32 -145 13 2 18 -5
20 -29 2 -25 -1 -33 -12 -33 -9 0 -16 5 -16 12 0 9 -3 9 -12 0 -11 -11 -10
-20 22 -127 5 -17 15 -66 21 -110 6 -44 15 -89 19 -100 15 -35 20 -59 22 -103
1 -24 5 -45 10 -48 12 -7 10 -64 -2 -64 -5 0 -10 10 -10 23 0 13 -4 27 -10 33
-15 15 -79 246 -92 331 -19 133 -16 453 5 453 1 0 2 -42 3 -93z m2260 74 c-3
-5 -45 -12 -93 -16 -49 -4 -95 -8 -103 -10 -18 -4 -182 -8 -229 -6 -73 2 -16
13 136 26 197 15 296 18 289 6z m788 -60 c20 -22 66 -151 59 -167 -4 -12 -49
-24 -89 -24 -14 0 -54 -13 -91 -30 -36 -16 -72 -30 -79 -30 -17 0 -74 111 -74
143 0 23 24 49 74 82 70 46 170 59 200 26z m-1464 -138 c22 -44 40 -85 40 -90
0 -4 -14 -8 -32 -8 -24 0 -34 6 -42 25 -6 14 -23 44 -39 67 -29 46 -34 82 -15
113 13 20 13 20 30 -2 9 -13 35 -60 58 -105z m422 105 c-17 -8 -26 -8 -34 0
-9 9 -4 12 23 11 32 0 33 -1 11 -11z m-510 -148 c20 -41 35 -83 32 -92 -3 -10
-1 -18 5 -18 33 0 118 -314 147 -540 27 -214 15 -364 -38 -505 -58 -151 -119
-218 -235 -256 -124 -42 -336 -10 -493 72 -103 54 -285 247 -395 419 -54 83
-185 348 -185 373 0 11 22 22 73 37 39 12 85 26 101 31 42 13 44 12 62 -22 14
-28 19 -30 48 -25 25 5 38 1 56 -14 14 -12 30 -18 39 -14 9 3 24 9 35 12 10 2
25 22 35 44 15 36 21 40 111 72 52 18 114 43 137 54 52 27 69 28 83 2 8 -15
21 -20 50 -20 47 0 70 27 70 82 0 27 4 38 15 38 28 0 63 22 74 47 15 33 9 38
-44 35 -25 -1 -45 2 -45 6 0 4 35 53 78 110 42 56 85 114 95 128 11 14 26 24
35 22 9 -2 33 -37 54 -78z m1303 -40 c24 -48 25 -53 11 -92 -7 -23 -18 -44
-23 -45 -10 -4 -43 60 -43 83 0 9 -13 29 -30 44 -44 42 -40 60 15 60 44 0 45
-1 70 -50z m-255 3 c85 -108 140 -199 141 -232 0 -20 3 -30 6 -23 9 24 32 12
63 -33 21 -31 41 -48 60 -51 19 -4 30 -14 34 -30 4 -13 23 -39 43 -59 33 -32
41 -35 74 -30 51 9 56 -8 12 -43 -55 -42 -77 -52 -120 -52 -31 0 -49 9 -96 48
-63 52 -121 119 -176 202 -20 30 -39 57 -42 60 -16 12 -126 246 -122 257 3 8
23 13 53 13 41 0 52 -4 70 -27z m-1400 -15 c0 -16 -3 -19 -11 -11 -6 6 -8 16
-5 22 11 17 16 13 16 -11z m520 -84 c8 -27 18 -53 21 -59 9 -14 49 -156 59
-213 5 -26 14 -68 19 -94 6 -27 8 -54 5 -62 -8 -20 -34 -8 -34 14 0 11 -4 21
-9 24 -5 3 -12 22 -16 43 -4 20 -15 53 -24 73 -26 51 -33 121 -15 141 8 9 12
24 8 33 -7 19 -24 22 -24 4 0 -22 -28 15 -43 57 -8 22 -17 47 -21 55 -4 10 2
19 16 26 34 17 41 12 58 -42z m1560 -13 c0 -5 -9 -11 -20 -14 -14 -3 -20 -14
-20 -31 0 -27 -25 -37 -33 -13 -2 6 -7 -3 -11 -20 -9 -38 -11 -39 -34 -16 -16
15 -17 14 -23 -20 -3 -21 -9 -40 -12 -43 -12 -12 -37 6 -37 26 0 11 -7 20 -15
20 -13 0 -15 -7 -10 -34 6 -27 2 -39 -14 -55 -24 -24 -39 -26 -75 -9 -28 12
-34 27 -32 77 1 31 6 38 51 60 28 15 66 33 85 40 76 32 200 52 200 32z m-429
-153 c11 3 24 -26 16 -34 -8 -8 -42 27 -50 51 l-7 20 16 -20 c8 -11 20 -19 25
-17z m-1932 3 c9 -6 -3 -15 -44 -30 -51 -19 -60 -20 -73 -7 -28 27 -7 46 50
46 29 0 59 -4 67 -9z m-49 -121 c-8 -5 -19 -10 -25 -10 -5 0 -3 5 5 10 8 5 20
10 25 10 6 0 3 -5 -5 -10z m2360 -8 c0 -30 -109 -145 -153 -161 -50 -19 -64
-14 -37 14 13 13 31 27 41 30 10 3 21 16 25 28 9 31 34 57 54 57 9 0 25 9 35
20 19 21 35 26 35 12z m-2558 -64 c-6 -6 -15 -8 -19 -4 -4 4 -1 11 7 16 19 12
27 3 12 -12z m138 12 c0 -5 -4 -10 -10 -10 -5 0 -10 5 -10 10 0 6 5 10 10 10
6 0 10 -4 10 -10z m1030 -251 c6 -10 9 -30 9 -46 -1 -20 -3 -22 -6 -8 -2 11
-16 30 -30 41 -14 12 -23 27 -19 32 9 15 34 4 46 -19z m-1487 -134 c22 -41 37
-80 35 -87 -5 -14 -78 95 -78 117 0 7 -5 17 -10 20 -11 7 -4 25 8 25 4 0 24
-34 45 -75z m1492 -75 c3 -11 3 -30 -1 -42 -4 -13 -6 -42 -5 -66 2 -42 -31
-154 -71 -239 -46 -99 -148 -177 -263 -203 -59 -14 -205 -5 -268 15 -41 13
-38 14 63 12 78 -1 124 3 179 18 67 18 80 26 137 84 35 35 64 68 64 73 0 5 10
24 23 41 24 34 44 81 57 137 17 68 40 175 40 182 0 17 39 7 45 -12z m-735
-906 c0 -2 -7 -4 -15 -4 -8 0 -15 4 -15 10 0 5 7 7 15 4 8 -4 15 -8 15 -10z"/>
<path d="M5130 4520 c20 -13 50 -13 50 0 0 6 -15 10 -32 10 -25 0 -29 -3 -18
-10z"/>
<path d="M5030 4467 c0 -20 9 -25 31 -20 15 4 17 8 8 19 -15 18 -39 18 -39 1z"/>
<path d="M5210 4230 c-23 -15 2 -32 41 -28 47 4 52 33 7 36 -18 1 -40 -2 -48
-8z"/>
<path d="M5125 4200 c-3 -5 1 -10 9 -10 9 0 16 5 16 10 0 6 -4 10 -9 10 -6 0
-13 -4 -16 -10z"/>
<path d="M5218 4162 c-58 -3 -74 -14 -41 -27 10 -3 19 -2 21 4 2 5 9 8 15 6
16 -6 85 9 72 15 -6 3 -36 4 -67 2z"/>
<path d="M5245 4110 c3 -5 8 -10 11 -10 2 0 4 5 4 10 0 6 -5 10 -11 10 -5 0
-7 -4 -4 -10z"/>
<path d="M5215 3910 c3 -5 12 -10 20 -10 8 0 17 5 20 10 4 6 -5 10 -20 10 -15
0 -24 -4 -20 -10z"/>
<path d="M5714 4115 c-9 -23 3 -45 25 -45 18 0 19 3 10 30 -12 33 -26 39 -35
15z"/>
<path d="M5461 3531 c-18 -11 -8 -36 19 -51 19 -10 20 -9 14 17 -9 36 -16 44
-33 34z"/>
<path d="M3785 2100 c9 -16 18 -30 21 -30 2 0 -2 14 -11 30 -9 17 -18 30 -21
30 -2 0 2 -13 11 -30z"/>
<path d="M3820 2045 c0 -5 5 -17 10 -25 5 -8 10 -10 10 -5 0 6 -5 17 -10 25
-5 8 -10 11 -10 5z"/>
<path d="M4250 2435 c0 -5 5 -17 10 -25 5 -8 10 -10 10 -5 0 6 -5 17 -10 25
-5 8 -10 11 -10 5z"/>
<path d="M4150 2391 c0 -6 4 -13 10 -16 6 -3 7 1 4 9 -7 18 -14 21 -14 7z"/>
<path d="M4180 2357 c0 -11 39 -87 46 -87 7 0 -7 43 -16 50 -4 3 -12 14 -18
25 -6 11 -12 16 -12 12z"/>
<path d="M4672 1711 c2 -4 18 -26 35 -47 25 -30 138 -174 160 -203 2 -2 6 -1
10 2 3 4 -9 28 -28 55 -77 108 -193 235 -177 193z"/>
<path d="M4401 1619 c-16 -117 -21 -139 -32 -139 -5 0 -6 -19 -4 -42 7 -55
-17 -270 -30 -275 -6 -2 -16 12 -24 29 -41 96 -116 248 -122 248 -10 0 51
-151 99 -246 23 -45 45 -95 48 -112 3 -17 19 -43 35 -58 30 -28 36 -27 20 4
-30 59 -33 74 -28 129 16 155 28 238 37 241 5 2 7 22 4 45 -3 23 1 85 9 137 8
52 11 101 7 109 -4 8 -12 -21 -19 -70z"/>
<path d="M4520 1602 c0 -30 149 -456 157 -448 8 7 -136 444 -148 452 -5 3 -9
1 -9 -4z"/>
<path d="M4380 6847 c29 -15 39 -18 169 -52 51 -14 101 -25 110 -24 23 1 -208
76 -260 84 -42 6 -43 6 -19 -8z"/>
<path d="M3875 6719 c-22 -17 -41 -35 -42 -40 -1 -5 1 -5 4 1 2 5 9 10 13 10
8 0 76 43 89 56 2 2 -2 4 -10 3 -8 0 -32 -14 -54 -30z"/>
<path d="M3790 6576 c0 -2 7 -21 17 -42 9 -22 28 -73 43 -114 15 -41 37 -102
49 -135 12 -33 26 -68 31 -77 6 -10 10 -26 10 -35 0 -10 9 -36 19 -58 27 -56
28 -13 1 57 -11 29 -20 59 -20 66 0 20 -67 190 -107 270 -31 63 -43 82 -43 68z"/>
<path d="M1904 6499 c-8 -14 4 -25 39 -33 24 -6 27 -4 27 19 0 21 -5 25 -29
25 -17 0 -33 -5 -37 -11z"/>
<path d="M2340 6480 c0 -5 5 -10 11 -10 5 0 7 5 4 10 -3 6 -8 10 -11 10 -2 0
-4 -4 -4 -10z"/>
<path d="M2999 6473 c-13 -16 -12 -17 4 -4 16 13 21 21 13 21 -2 0 -10 -8 -17
-17z"/>
<path d="M3172 6460 c0 -14 2 -19 5 -12 2 6 2 18 0 25 -3 6 -5 1 -5 -13z"/>
<path d="M2950 6425 c-7 -9 -8 -15 -2 -15 5 0 12 7 16 15 3 8 4 15 2 15 -2 0
-9 -7 -16 -15z"/>
<path d="M2067 6376 c-23 -24 -53 -46 -65 -50 -12 -4 -23 -16 -23 -27 -1 -10
-2 -24 -3 -31 -2 -20 22 -20 28 0 4 10 33 45 66 78 33 32 60 62 60 67 0 17
-24 4 -63 -37z"/>
<path d="M3100 6413 c0 -28 38 -117 58 -135 14 -13 23 -18 20 -13 -21 39 -58
128 -58 140 0 8 -4 15 -10 15 -5 0 -10 -3 -10 -7z"/>
<path d="M2105 6342 c-13 -20 -27 -51 -31 -67 -5 -26 -2 -31 15 -32 16 -1 21
4 21 23 0 14 12 45 26 70 21 36 23 44 10 44 -9 0 -27 -17 -41 -38z"/>
<path d="M2906 6368 c-11 -37 -14 -60 -6 -52 11 12 24 64 16 64 -4 0 -8 -6
-10 -12z"/>
<path d="M1940 6346 c0 -9 5 -16 10 -16 6 0 10 4 10 9 0 6 -4 13 -10 16 -5 3
-10 -1 -10 -9z"/>
<path d="M2130 6236 c0 -9 30 -14 35 -6 4 6 -3 10 -14 10 -12 0 -21 -2 -21 -4z"/>
<path d="M2000 6181 c0 -6 5 -13 10 -16 6 -3 10 1 10 9 0 9 -4 16 -10 16 -5 0
-10 -4 -10 -9z"/>
<path d="M2860 6042 c-7 -26 -24 -69 -37 -96 -43 -91 -21 -73 31 27 36 67 44
101 27 111 -5 3 -14 -16 -21 -42z"/>
<path d="M4982 6028 c9 -29 144 -115 245 -158 92 -38 117 -53 168 -105 33 -33
75 -78 92 -100 40 -51 44 -24 5 34 -68 101 -132 149 -282 211 -78 32 -108 48
-167 92 -56 41 -67 45 -61 26z"/>
<path d="M4930 5952 c0 -4 31 -70 70 -146 38 -76 74 -153 80 -171 11 -34 40
-56 40 -31 0 7 -7 30 -15 49 -19 47 -19 50 5 35 11 -7 20 -19 20 -27 0 -8 3
-11 6 -8 9 9 -23 74 -41 84 -13 8 -85 118 -85 131 0 2 -18 24 -40 48 -22 24
-40 40 -40 36z"/>
<path d="M2792 5860 c0 -14 2 -19 5 -12 2 6 2 18 0 25 -3 6 -5 1 -5 -13z"/>
<path d="M5955 5860 c-4 -6 35 -10 109 -10 108 0 207 -15 273 -41 46 -18 93
-27 93 -18 0 5 -12 12 -27 15 -16 4 -32 10 -38 14 -13 8 -76 27 -135 40 -60
13 -267 13 -275 0z"/>
<path d="M5800 5838 c-107 -46 -173 -82 -157 -86 10 -2 46 9 80 25 34 16 82
35 107 43 25 7 49 17 55 22 13 12 -55 9 -85 -4z"/>
<path d="M2768 5810 c-11 -38 -10 -56 3 -43 6 6 9 23 7 39 l-3 29 -7 -25z"/>
<path d="M5950 5793 c-14 -3 -27 -8 -30 -12 -10 -14 -116 -40 -187 -47 -76 -7
-101 -24 -35 -24 20 0 44 -5 52 -10 11 -7 7 -10 -18 -10 -18 0 -42 -5 -53 -11
-17 -9 -21 -7 -26 11 -7 28 -23 21 -45 -19 -17 -31 -18 -34 -2 -45 15 -11 14
-14 -10 -29 -14 -9 -28 -17 -32 -17 -4 0 -15 -6 -23 -14 -9 -8 -53 -33 -99
-56 -46 -23 -81 -45 -78 -47 10 -10 74 8 99 27 13 11 82 52 153 91 71 39 136
77 144 85 18 15 185 99 218 109 12 3 22 11 22 16 0 9 -7 10 -50 2z"/>
<path d="M3141 5758 c12 -18 53 -63 91 -100 55 -54 75 -68 100 -68 27 0 29 2
17 16 -7 8 -29 24 -48 34 -20 10 -65 48 -101 84 -71 71 -94 84 -59 34z"/>
<path d="M5564 5739 c-3 -6 -2 -15 4 -21 7 -7 14 -3 21 11 10 17 9 21 -3 21
-8 0 -18 -5 -22 -11z"/>
<path d="M2752 5705 c0 -16 2 -22 5 -12 2 9 2 23 0 30 -3 6 -5 -1 -5 -18z"/>
<path d="M4270 5620 c-12 -7 -8 -10 15 -10 17 0 37 5 45 10 12 7 8 10 -15 10
-16 0 -37 -5 -45 -10z"/>
<path d="M4110 5603 c-91 -14 -95 -15 -78 -24 17 -10 172 7 198 22 15 8 -69
10 -120 2z"/>
<path d="M3600 5592 c0 -5 18 -21 40 -36 106 -70 244 -105 414 -106 85 0 156
15 156 32 0 4 -62 8 -137 8 -204 0 -338 28 -440 92 -18 11 -33 15 -33 10z"/>
<path d="M2706 5572 c-4 -13 -5 -26 -2 -29 10 -11 18 4 14 29 l-4 23 -8 -23z"/>
<path d="M4775 5380 c3 -5 34 -10 68 -10 68 0 125 -15 208 -53 162 -74 179
-80 179 -67 0 5 -10 12 -22 16 -13 3 -35 15 -50 25 -14 11 -33 19 -42 19 -9 0
-16 6 -16 13 0 22 -39 36 -149 52 -122 18 -185 19 -176 5z"/>
<path d="M2671 5327 c-11 -19 -21 -38 -21 -41 0 -4 -11 -35 -24 -69 -32 -85
-69 -214 -81 -280 -4 -27 -3 -37 4 -32 6 3 11 13 11 21 0 8 4 22 10 32 5 9 24
67 41 127 17 61 44 145 61 188 33 85 32 108 -1 54z"/>
<path d="M4821 5220 c-30 -21 -65 -41 -78 -44 -12 -4 -23 -11 -23 -16 0 -5
-16 -12 -35 -16 -19 -3 -39 -12 -43 -18 -14 -23 -89 -35 -230 -37 -78 -1 -142
-5 -142 -9 0 -4 24 -13 54 -20 71 -17 222 -8 303 18 70 22 196 99 244 148 44
46 18 42 -50 -6z"/>
<path d="M5287 5186 c25 -31 69 -54 80 -42 6 5 -86 76 -99 76 -6 0 3 -15 19
-34z"/>
<path d="M6257 5100 c-26 -16 -51 -30 -55 -30 -14 -1 -57 -40 -44 -40 12 0 79
33 106 53 73 51 67 64 -7 17z"/>
<path d="M5440 5097 c19 -13 55 -31 79 -41 56 -22 269 -76 295 -75 35 1 -28
24 -132 49 -51 12 -131 37 -177 56 -100 40 -112 42 -65 11z"/>
<path d="M4110 5079 c39 -31 96 -58 179 -86 69 -23 92 -25 256 -27 177 -1 212
3 298 38 37 15 34 30 -5 22 -18 -3 -69 -12 -113 -21 -187 -35 -392 -9 -559 71
-63 30 -91 32 -56 3z"/>
<path d="M5720 5083 c0 -18 103 -33 232 -33 72 0 128 3 125 7 -4 3 -69 10
-144 14 -76 4 -155 10 -175 14 -22 4 -38 3 -38 -2z"/>
<path d="M7856 3935 c-14 -27 -36 -66 -47 -85 -11 -19 -46 -78 -76 -130 -31
-52 -91 -151 -134 -220 -107 -174 -141 -232 -136 -237 9 -9 68 79 189 282 179
301 240 413 235 427 -2 7 -16 -9 -31 -37z"/>
<path d="M7719 3308 c-6 -12 -15 -25 -18 -28 -6 -5 -39 -52 -121 -175 -19 -29
-61 -86 -93 -126 -31 -41 -77 -101 -102 -134 -25 -33 -74 -98 -110 -144 -36
-47 -62 -87 -59 -90 6 -6 52 46 112 128 20 28 77 103 126 168 211 278 297 406
282 420 -2 3 -10 -6 -17 -19z"/>
<path d="M7180 2575 c-7 -9 -10 -18 -7 -21 3 -3 10 4 17 15 13 25 8 27 -10 6z"/>
<path d="M5760 1300 c0 -5 9 -10 19 -10 11 0 23 5 26 10 4 6 -5 10 -19 10 -14
0 -26 -4 -26 -10z"/>
<path d="M5680 1280 c0 -5 9 -10 21 -10 11 0 17 5 14 10 -3 6 -13 10 -21 10
-8 0 -14 -4 -14 -10z"/>
<path d="M5510 1251 c-24 -4 -31 -9 -22 -14 15 -10 89 1 98 14 6 10 -21 10
-76 0z"/>
</g>
</svg>
